<?xml version="1.0" encoding="UTF-8"?>
<!DOCTYPE svg PUBLIC "-//W3C//DTD SVG 1.1//EN"
  "http://www.w3.org/Graphics/SVG/1.1/DTD/svg11.dtd">
<svg xmlns:xlink="http://www.w3.org/1999/xlink" width="612pt" viewBox="0,0,612,792" xmlns="http://www.w3.org/2000/svg" version="1.1" height="792pt">
<defs/>
<g id="Layer 1">
<g opacity="1">
<path fill="#ffc828" d="M190.827 384.519 C190.827 359.667 210.974 339.519 235.827 339.519C260.679 339.519 280.827 359.667 280.827 384.519C280.827 409.372 260.679 429.519 235.827 429.519C210.974 429.519 190.827 409.372 190.827 384.519Z" opacity="1"/>
<path fill="#ff8228" d="M208.827 384.519 C208.827 369.608 220.915 357.519 235.827 357.519C250.738 357.519 262.827 369.608 262.827 384.519C262.827 399.431 250.738 411.519 235.827 411.519C220.915 411.519 208.827 399.431 208.827 384.519Z" opacity="1"/>
</g>
<g opacity="1">
<path fill="#ffc828" d="M190.827 330.519 C190.827 305.667 210.974 285.519 235.827 285.519C260.679 285.519 280.827 305.667 280.827 330.519C280.827 355.372 260.679 375.519 235.827 375.519C210.974 375.519 190.827 355.372 190.827 330.519Z" opacity="1"/>
<path fill="#ff8228" d="M208.827 330.519 C208.827 315.608 220.915 303.519 235.827 303.519C250.738 303.519 262.827 315.608 262.827 330.519C262.827 345.431 250.738 357.519 235.827 357.519C220.915 357.519 208.827 345.431 208.827 330.519Z" opacity="1"/>
</g>
<g opacity="1">
<path fill="#ffc828" d="M257.684 366.519 C257.684 348.767 272.075 334.376 289.827 334.376C307.579 334.376 321.969 348.767 321.969 366.519C321.969 384.271 307.579 398.662 289.827 398.662C272.075 398.662 257.684 384.271 257.684 366.519Z" opacity="1"/>
<path fill="#ff8228" d="M270.541 366.519 C270.541 355.868 279.175 347.234 289.827 347.234C300.478 347.234 309.112 355.868 309.112 366.519C309.112 377.171 300.478 385.805 289.827 385.805C279.175 385.805 270.541 377.171 270.541 366.519Z" opacity="1"/>
</g>
<g opacity="1">
<path fill="#ffc828" d="M309.112 317.662 C309.112 299.91 294.721 285.519 276.969 285.519C259.217 285.519 244.827 299.91 244.827 317.662C244.827 335.414 259.217 349.805 276.969 349.805C294.721 349.805 309.112 335.414 309.112 317.662Z" opacity="1"/>
<path fill="#ff8228" d="M296.255 317.662 C296.255 307.011 287.621 298.376 276.969 298.376C266.318 298.376 257.684 307.011 257.684 317.662C257.684 328.313 266.318 336.948 276.969 336.948C287.621 336.948 296.255 328.313 296.255 317.662Z" opacity="1"/>
</g>
<g opacity="1">
<path fill="#ffc828" d="M226.827 361.377 C226.827 343.625 212.436 329.234 194.684 329.234C176.932 329.234 162.541 343.625 162.541 361.377C162.541 379.129 176.932 393.519 194.684 393.519C212.436 393.519 226.827 379.129 226.827 361.377Z" opacity="1"/>
<path fill="#ff8228" d="M213.969 361.377 C213.969 350.725 205.335 342.091 194.684 342.091C184.032 342.091 175.398 350.725 175.398 361.377C175.398 372.028 184.032 380.662 194.684 380.662C205.335 380.662 213.969 372.028 213.969 361.377Z" opacity="1"/>
</g>
<g opacity="1">
<path fill="#ffc828" d="M316.512 271.377 C316.512 259.479 306.867 249.834 294.969 249.834C283.072 249.834 273.426 259.479 273.426 271.377C273.426 283.274 283.072 292.919 294.969 292.919C306.867 292.919 316.512 283.274 316.512 271.377Z" opacity="1"/>
<path fill="#ff8228" d="M307.895 271.377 C307.895 264.238 302.108 258.451 294.969 258.451C287.831 258.451 282.044 264.238 282.044 271.377C282.044 278.515 287.831 284.302 294.969 284.302C302.108 284.302 307.895 278.515 307.895 271.377Z" opacity="1"/>
</g>
<g opacity="1">
<path fill="#ffc828" d="M211.757 401.739 C211.757 389.841 202.112 380.196 190.214 380.196C178.316 380.196 168.671 389.841 168.671 401.739C168.671 413.637 178.316 423.282 190.214 423.282C202.112 423.282 211.757 413.637 211.757 401.739Z" opacity="1"/>
<path fill="#ff8228" d="M203.139 401.739 C203.139 394.6 197.352 388.813 190.214 388.813C183.075 388.813 177.288 394.6 177.288 401.739C177.288 408.878 183.075 414.665 190.214 414.665C197.352 414.665 203.139 408.878 203.139 401.739Z" opacity="1"/>
</g>
<g opacity="1">
<path fill="#ffc828" d="M325.824 336.558 C325.824 324.66 316.179 315.015 304.281 315.015C292.383 315.015 282.738 324.66 282.738 336.558C282.738 348.456 292.383 358.101 304.281 358.101C316.179 358.101 325.824 348.456 325.824 336.558Z" opacity="1"/>
<path fill="#ff8228" d="M317.207 336.558 C317.207 329.419 311.42 323.632 304.281 323.632C297.142 323.632 291.355 329.419 291.355 336.558C291.355 343.697 297.142 349.484 304.281 349.484C311.42 349.484 317.207 343.697 317.207 336.558Z" opacity="1"/>
</g>
</g>
</svg>
