<?xml version="1.0" encoding="UTF-8"?>
<!DOCTYPE svg PUBLIC "-//W3C//DTD SVG 1.1//EN"
  "http://www.w3.org/Graphics/SVG/1.1/DTD/svg11.dtd">
<svg xmlns:xlink="http://www.w3.org/1999/xlink" width="150pt" viewBox="0,0,150,150" xmlns="http://www.w3.org/2000/svg" version="1.1" height="150pt">
<defs/>
<g id="Layer 1">
<path stroke-linejoin="round" stroke-width="20.5" stroke="#ffffff" d="M16.9385 74.866 C16.9385 40.6715 42.8791 12.9513 74.8784 12.9513C106.878 12.9513 132.818 40.6715 132.818 74.866C132.818 109.06 106.878 136.781 74.8784 136.781C42.8791 136.781 16.9385 109.06 16.9385 74.866Z" fill-opacity="0" fill="#ffffff" opacity="1"/>
<path fill="#ffffff" d="M48.8816 28.2605 C40.4437 28.2605 32.0102 64.1366 32.0102 78.9029C32.0102 80.6029 32.1358 82.2289 32.3465 83.8074C29.6856 87.6602 22.0891 99.81 22.0891 99.81L32.3185 128.901 L39.8854 100.146 C40.5749 100.808 41.3325 101.319 42.0714 101.828L44.6778 109.675 L48.6013 109.675 L49.0778 129.966 L49.6103 109.675 L53.1135 109.675 L55.7199 101.828 C56.6261 101.202 57.497 100.468 58.3262 99.6138L69.9008 129.405 L76.9633 98.6049 C76.9633 98.6049 67.9582 84.7232 65.5569 81.5933C65.622 80.6961 65.753 79.8354 65.753 78.9029C65.753 64.1366 57.3194 28.2606 48.8816 28.2605ZM48.9937 62.704 C53.2126 62.704 57.4294 71.1375 57.4294 79.5755C57.4294 88.0133 53.2126 96.4469 48.9937 96.4469C44.7747 96.4469 40.558 88.0133 40.558 79.5755C40.558 71.1376 44.7747 62.7041 48.9937 62.704Z" opacity="1"/>
</g>
</svg>
